<svg width="800" height="800" xmlns="http://www.w3.org/2000/svg">
<defs>
<linearGradient id="skyGradient" x1="0%" y1="0%" x2="0%" y2="100%">
<stop offset="0%" style="stop-color:#87ceeb;stop-opacity:1"/>
<stop offset="100%" style="stop-color:#e0f7fa;stop-opacity:1"/>
</linearGradient>
</defs>
<rect width="800" height="800" fill="url(#skyGradient)"/>
<circle cx="152" cy="167" r="51" fill="#ffeb3b"/>
<polygon points="0,800 54,725 129,745 254,750 358,747 503,750 607,750 673,750 800,750 800,800" fill="#4b2e1a" stroke="#000000" stroke-width="2"/>
<polygon points="0,800 96,561 177,526 259,516 351,557 403,517 513,550 661,596 729,571 800,571 800,800" fill="#6b4e31" stroke="#000000" stroke-width="2"/>
<polygon points="0,800 83,452 196,430 247,473 315,456 387,487 531,478 657,430 747,457 800,457 800,800" fill="#8b6f47" stroke="#000000" stroke-width="2"/>
<rect x="65" y="676" width="9" height="24" fill="#4a2f1a"/>
<polygon points="69,602 51,676 87,676" fill="#2e7d32" stroke="#1b5e20" stroke-width="1"/>
<rect x="262" y="597" width="12" height="32" fill="#4a2f1a"/>
<polygon points="268,499 244,597 292,597" fill="#2e7d32" stroke="#1b5e20" stroke-width="1"/>
<rect x="173" y="705" width="7" height="20" fill="#4a2f1a"/>
<polygon points="176,643 161,705 191,705" fill="#2e7d32" stroke="#1b5e20" stroke-width="1"/>
<rect x="561" y="623" width="9" height="24" fill="#4a2f1a"/>
<polygon points="565,551 547,623 583,623" fill="#2e7d32" stroke="#1b5e20" stroke-width="1"/>
<rect x="90" y="679" width="8" height="22" fill="#4a2f1a"/>
<polygon points="94,613 78,679 110,679" fill="#2e7d32" stroke="#1b5e20" stroke-width="1"/>
<rect x="130" y="581" width="13" height="34" fill="#4a2f1a"/>
<polygon points="136,477 110,581 162,581" fill="#2e7d32" stroke="#1b5e20" stroke-width="1"/>
<rect x="211" y="678" width="9" height="24" fill="#4a2f1a"/>
<polygon points="215,604 197,678 233,678" fill="#2e7d32" stroke="#1b5e20" stroke-width="1"/>
<rect x="726" y="656" width="10" height="29" fill="#4a2f1a"/>
<polygon points="731,569 710,656 752,656" fill="#2e7d32" stroke="#1b5e20" stroke-width="1"/>
<rect x="81" y="641" width="12" height="32" fill="#4a2f1a"/>
<polygon points="87,544 63,641 111,641" fill="#2e7d32" stroke="#1b5e20" stroke-width="1"/>
<rect x="575" y="619" width="12" height="32" fill="#4a2f1a"/>
<polygon points="581,523 557,619 605,619" fill="#2e7d32" stroke="#1b5e20" stroke-width="1"/>
<rect x="134" y="630" width="11" height="29" fill="#4a2f1a"/>
<polygon points="139,542 117,630 161,630" fill="#2e7d32" stroke="#1b5e20" stroke-width="1"/>
<rect x="183" y="671" width="11" height="31" fill="#4a2f1a"/>
<polygon points="188,577 165,671 211,671" fill="#2e7d32" stroke="#1b5e20" stroke-width="1"/>
<rect x="471" y="651" width="14" height="38" fill="#4a2f1a"/>
<polygon points="478,537 450,651 506,651" fill="#2e7d32" stroke="#1b5e20" stroke-width="1"/>
<rect x="132" y="710" width="12" height="34" fill="#4a2f1a"/>
<polygon points="138,607 113,710 163,710" fill="#2e7d32" stroke="#1b5e20" stroke-width="1"/>
<rect x="48" y="574" width="13" height="34" fill="#4a2f1a"/>
<polygon points="54,470 28,574 80,574" fill="#2e7d32" stroke="#1b5e20" stroke-width="1"/>
<rect x="0" y="750" width="800" height="50" fill="#3e2723"/>
</svg>